<svg xmlns="http://www.w3.org/2000/svg" xmlns:xlink="http://www.w3.org/1999/xlink" version="1.1" width="1000" height="1000" viewBox="0 0 1000 1000" xml:space="preserve">
<desc>Created with Fabric.js 3.5.0</desc>
<defs>
</defs>
<rect x="0" y="0" width="100%" height="100%" fill="rgba(255,255,255,0)"/>
<g transform="matrix(1.7756 0 0 1.7756 500.0081 500.0061)" id="965392">
<path style="stroke: none; stroke-width: 1; stroke-dasharray: none; stroke-linecap: butt; stroke-dashoffset: 0; stroke-linejoin: miter; stroke-miterlimit: 4; is-custom-font: none; font-file-url: none; fill: rgb(107,114,128); fill-rule: nonzero; opacity: 1;" vector-effect="non-scaling-stroke" transform=" translate(-256, -256)" d="M 48 64 C 21.5 64 0 85.5 0 112 c 0 15.1 7.1 29.3 19.2 38.4 L 236.8 313.6 c 11.4 8.5 27 8.5 38.4 0 L 492.8 150.4 c 12.1 -9.1 19.2 -23.3 19.2 -38.4 c 0 -26.5 -21.5 -48 -48 -48 H 48 z M 0 176 V 384 c 0 35.3 28.7 64 64 64 H 448 c 35.3 0 64 -28.7 64 -64 V 176 L 294.4 339.2 c -22.8 17.1 -54 17.1 -76.8 0 L 0 176 z" stroke-linecap="round"/>
</g>
</svg>